<svg width="19" height="19" viewBox="0 0 19 19" fill="none" xmlns="http://www.w3.org/2000/svg">
    <mask id="6hacm6niya" style="mask-type:alpha" maskUnits="userSpaceOnUse" x="0" y="0" width="19" height="19">
        <path fill-rule="evenodd" clip-rule="evenodd" d="M0 3a3 3 0 0 1 3-3h13a3 3 0 0 1 3 3v13a3 3 0 0 1-3 3H3a3 3 0 0 1-3-3V3z" fill="#fff"/>
    </mask>
    <g mask="url(#6hacm6niya)" fill-rule="evenodd" clip-rule="evenodd" fill="#2675EC">
        <path d="M0 3a3 3 0 0 1 3-3h13a3 3 0 0 1 3 3v13a3 3 0 0 1-3 3H3a3 3 0 0 1-3-3V3z"/>
        <path d="M-2 3a5 5 0 0 1 5-5h13a5 5 0 0 1 5 5v13a5 5 0 0 1-5 5H3a5 5 0 0 1-5-5V3zm5-1a1 1 0 0 0-1 1v13a1 1 0 0 0 1 1h13a1 1 0 0 0 1-1V3a1 1 0 0 0-1-1H3z"/>
    </g>
    <mask id="r9br0mez6b" style="mask-type:alpha" maskUnits="userSpaceOnUse" x="4" y="4" width="11" height="11">
        <path fill-rule="evenodd" clip-rule="evenodd" d="M15 9.5a5.5 5.5 0 1 1-11 0 5.5 5.5 0 0 1 11 0z" fill="#fff"/>
    </mask>
    <g mask="url(#r9br0mez6b)" fill-rule="evenodd" clip-rule="evenodd">
        <path d="M15 9.5a5.5 5.5 0 1 1-11 0 5.5 5.5 0 0 1 11 0z" fill="#FAFAFA"/>
        <path d="M9.5 6a3.5 3.5 0 1 0 0 7 3.5 3.5 0 0 0 0-7zm0 11a7.5 7.5 0 1 1 0-15 7.5 7.5 0 0 1 0 15z" fill="#2675EC"/>
    </g>
</svg>
